HIERARCHY
ROOT SimulationBone
{
	OFFSET 0.000000 0.000000 0.000000
	CHANNELS 6 Xposition Yposition Zposition Zrotation Yrotation Xrotation 
	JOINT Hips
	{
		OFFSET 0.000000 0.000000 0.000000
		CHANNELS 6 Xposition Yposition Zposition Zrotation Yrotation Xrotation 
		JOINT LeftUpLeg
		{
			OFFSET 0.103456 1.857826 10.548504
			CHANNELS 3 Zrotation Yrotation Xrotation
			JOINT LeftLeg
			{
				OFFSET 43.499996 -0.000038 0.000006
				CHANNELS 3 Zrotation Yrotation Xrotation
				JOINT LeftFoot
				{
					OFFSET 42.372192 0.000011 -0.000004
					CHANNELS 3 Zrotation Yrotation Xrotation
					JOINT LeftToe
					{
						OFFSET 17.300018 0.000006 0.000004
						CHANNELS 3 Zrotation Yrotation Xrotation
						End Site
						{
							OFFSET 0.000000 0.000000 0.000000
						}
					}
				}
			}
		}
		JOINT RightUpLeg
		{
			OFFSET 0.103455 1.857819 -10.548502
			CHANNELS 3 Zrotation Yrotation Xrotation
			JOINT RightLeg
			{
				OFFSET 43.500038 -0.000031 0.000011
				CHANNELS 3 Zrotation Yrotation Xrotation
				JOINT RightFoot
				{
					OFFSET 42.372261 -0.000008 0.000014
					CHANNELS 3 Zrotation Yrotation Xrotation
					JOINT RightToe
					{
						OFFSET 17.299999 -0.000004 0.000004
						CHANNELS 3 Zrotation Yrotation Xrotation
						End Site
						{
							OFFSET 0.000000 0.000000 0.000000
						}
					}
				}
			}
		}
		JOINT Spine
		{
			OFFSET 6.901965 -2.603737 -0.000000
			CHANNELS 3 Zrotation Yrotation Xrotation
			JOINT Spine1
			{
				OFFSET 12.588105 0.000013 0.000001
				CHANNELS 3 Zrotation Yrotation Xrotation
				JOINT Spine2
				{
					OFFSET 12.343203 0.000010 -0.000000
					CHANNELS 3 Zrotation Yrotation Xrotation
					JOINT Neck
					{
						OFFSET 25.832893 -0.000038 0.000001
						CHANNELS 3 Zrotation Yrotation Xrotation
						JOINT Head
						{
							OFFSET 11.766606 0.000028 0.000001
							CHANNELS 3 Zrotation Yrotation Xrotation
							End Site
							{
								OFFSET 0.000000 0.000000 0.000000
							}
						}
					}
					JOINT LeftShoulder
					{
						OFFSET 19.745897 -1.480375 6.000107
						CHANNELS 3 Zrotation Yrotation Xrotation
						JOINT LeftArm
						{
							OFFSET 11.284126 -0.000009 -0.000017
							CHANNELS 3 Zrotation Yrotation Xrotation
							JOINT LeftForeArm
							{
								OFFSET 33.000046 0.000006 0.000030
								CHANNELS 3 Zrotation Yrotation Xrotation
								JOINT LeftHand
								{
									OFFSET 25.200006 0.000034 0.000015
									CHANNELS 3 Zrotation Yrotation Xrotation
									End Site
									{
										OFFSET 0.000000 0.000000 0.000000
									}
								}
							}
						}
					}
					JOINT RightShoulder
					{
						OFFSET 19.746096 -1.480394 -6.000075
						CHANNELS 3 Zrotation Yrotation Xrotation
						JOINT RightArm
						{
							OFFSET 11.284135 -0.000006 -0.000006
							CHANNELS 3 Zrotation Yrotation Xrotation
							JOINT RightForeArm
							{
								OFFSET 33.000095 0.000018 0.000006
								CHANNELS 3 Zrotation Yrotation Xrotation
								JOINT RightHand
								{
									OFFSET 25.199783 0.000116 0.000436
									CHANNELS 3 Zrotation Yrotation Xrotation
									End Site
									{
										OFFSET 0.000000 0.000000 0.000000
									}
								}
							}
						}
					}
				}
			}
		}
	}
}
MOTION
Frames: 7
Frame Time: 0.033333
-13.191098 0.000000 -60.655716 0.000000 248.306385 0.000000 -0.722354 88.401047 -0.510921 94.900051 0.103480 174.907074 178.032446 -17.083599 -170.858466 -26.510508 -3.986142 -3.295952 84.875885 -0.770825 -15.816772 21.454557 0.003103 0.000017 166.061406 10.158094 -178.684155 -32.137478 -0.677358 -3.524060 86.755376 4.059875 8.440944 21.454550 -0.003093 0.000000 10.023938 0.644118 -0.970670 10.024481 1.369928 -1.881967 9.706468 1.358409 -1.890223 8.029152 -0.529699 0.592007 -17.698898 -3.599324 1.838723 151.824423 -74.705290 27.463405 12.195506 47.611063 27.199606 -29.474691 -17.274979 1.391140 17.303898 -2.931509 29.931692 -170.017028 74.085539 11.609676 -6.513198 -54.739335 -14.479019 -73.693623 10.261377 -2.315814 13.869053 1.913943 -23.462098 
-15.409700 0.000000 -61.451112 0.000000 251.545313 0.000000 -1.029885 88.688362 -0.829134 94.514344 0.863638 176.180547 174.502126 -18.812107 -169.552083 -28.095695 -3.850313 -2.208471 82.046787 -1.857720 -15.383565 21.454560 0.003100 0.000015 167.409357 9.167007 -175.217001 -31.377906 -0.187218 -2.548439 86.807832 3.174051 7.468981 21.454550 -0.003083 0.000001 9.909797 1.052279 -1.169809 9.786929 2.199723 -2.246789 9.468842 2.185973 -2.260036 8.476999 -0.361345 2.341843 -17.286379 -5.451005 4.361110 148.605013 -74.181182 30.779913 6.757334 51.022452 20.907199 -31.653521 -17.539072 1.451918 16.697562 -4.946926 26.640980 -170.835558 74.160773 10.769591 -8.694697 -53.594930 -14.247425 -73.301781 10.495163 -2.315739 13.638330 2.829975 -24.734649 
-17.443981 0.000000 -62.222685 0.000000 254.695947 0.000000 -1.240753 89.173698 -1.031710 94.344429 0.876218 177.003050 171.616125 -19.138699 -170.473039 -29.044444 -3.883638 -3.086972 77.930457 -1.559985 -14.572805 21.454558 0.003115 0.000017 168.895442 8.576912 -172.591463 -30.009239 0.244581 -1.454942 86.548687 2.240484 6.564929 21.454555 -0.003095 -0.000002 9.855745 1.258565 -1.228474 9.674311 2.615423 -2.347936 9.356154 2.601069 -2.363701 8.876553 -0.229189 4.570957 -17.215034 -7.250036 7.365441 145.627816 -73.620580 33.852969 -0.031991 53.231025 17.854413 -34.833323 -17.369878 1.511233 15.960692 -5.508883 23.297879 -171.782604 74.252687 9.798079 -11.072611 -52.216902 -13.197946 -73.214184 10.586070 -2.318026 13.028560 2.986078 -24.674557 
-19.302315 0.000000 -62.967584 0.000000 257.729425 0.000000 -1.388531 89.560654 -1.324389 94.415382 0.611051 177.496148 169.532672 -18.548804 -173.097470 -29.825049 -3.870162 -5.701394 74.524850 0.099629 -13.973202 21.454563 0.003107 0.000018 170.180543 8.305294 -170.320316 -28.964879 0.617818 -0.507154 86.382188 1.425215 5.766348 21.454555 -0.003092 -0.000001 9.911734 1.385323 -1.173077 9.785786 2.864842 -2.225413 9.467514 2.851212 -2.242680 9.037268 -0.204813 7.096605 -17.431734 -8.782574 10.581183 142.815390 -72.703136 36.785992 -6.895649 53.916806 17.674940 -39.505592 -17.070361 1.607515 14.518856 -5.311052 23.211472 -173.292623 74.693965 8.252368 -13.589335 -50.755993 -11.464400 -73.173210 10.646409 -2.320811 12.301348 3.162298 -23.250263 
-20.993076 0.000000 -63.682954 0.000000 260.621463 0.000000 -1.464710 89.976059 -1.613255 94.612562 0.007212 178.188818 167.955445 -16.740088 -175.950113 -30.040658 -3.372980 -9.642507 71.258100 3.015975 -12.733474 21.454558 0.003112 0.000016 171.556730 8.464297 -167.847131 -27.828947 0.989808 0.291020 86.156102 0.726850 5.028670 21.454551 -0.003082 0.000003 10.012450 1.451168 -1.144297 9.987168 2.995670 -2.159673 9.668843 2.982447 -2.177737 9.037576 -0.280749 9.708705 -17.522637 -10.037104 13.751820 139.911917 -71.613973 39.828103 -13.056386 53.800423 18.549942 -45.714740 -16.590480 1.751579 12.014879 -5.383765 27.725073 -175.025305 75.375488 6.483902 -16.111414 -49.105857 -9.498846 -73.247119 10.647479 -2.323962 11.805761 3.666925 -21.565165 
-22.524640 0.000000 -64.365944 0.000000 263.352937 0.000000 -1.488645 90.329720 -1.871687 94.765856 -0.591412 179.248018 166.613763 -14.726494 -178.039440 -29.377955 -3.243399 -13.283720 68.759091 5.945605 -11.290347 21.454557 0.003105 0.000018 172.856242 8.686497 -165.203452 -26.752200 1.387841 1.070207 85.973797 0.062762 4.416536 21.454548 -0.003091 0.000001 10.077270 1.528528 -1.149211 10.115732 3.151655 -2.161077 9.797359 3.138417 -2.180084 9.055968 -0.342288 12.155689 -17.228908 -11.138945 16.646230 137.241901 -70.785909 42.614090 -18.792154 53.701061 18.857614 -52.740801 -15.563990 1.909100 8.932603 -5.670816 34.778893 -176.538588 75.868170 4.941288 -18.165119 -46.849326 -7.970129 -73.483847 10.595422 -2.330218 11.537805 4.321628 -20.463831 
-23.905379 0.000000 -65.013702 0.000000 265.909995 0.000000 -1.501135 90.616966 -2.049914 94.765371 -1.071413 -179.597139 165.511466 -13.419098 -179.895312 -28.324286 -3.873321 -14.519893 67.395662 7.122807 -10.234549 21.454560 0.003124 0.000016 173.883229 8.779006 -162.705993 -25.758103 1.817561 1.866681 85.829270 -0.595405 3.902268 21.454555 -0.003093 0.000000 10.074392 1.613508 -1.131556 10.109441 3.319689 -2.118564 9.790991 3.306696 -2.138588 9.076965 -0.426755 14.234855 -16.670019 -12.042842 19.032676 135.245792 -70.353851 44.681892 -24.163614 53.901746 18.303440 -59.934104 -13.948579 2.057107 6.182863 -5.499825 40.959972 -177.903601 76.021952 3.547139 -19.553133 -44.009006 -7.102709 -73.670680 10.611027 -2.339090 11.311452 4.892336 -19.906672 
